<?xml version="1.0"?>
<svg xmlns:rdf="http://www.w3.org/1999/02/22-rdf-syntax-ns#" xmlns="http://www.w3.org/2000/svg" xmlns:cc="http://web.resource.org/cc/" xmlns:xlink="http://www.w3.org/1999/xlink" xmlns:dc="http://purl.org/dc/elements/1.1/" xmlns:svg="http://www.w3.org/2000/svg" id="Layer_1" style="enable-background:new 0 0 679.742 456.811" xml:space="preserve" viewBox="0 0 679.742 456.811" version="1.1" y="0px" x="0px">
	<path d="m670.67 138.66c4.809 8.688 5.012 21.181 8.971 30.995 1.818-34.988-20.687-50.002-33.441-67.699 4.739 0.654 4.53 5.002 8.975 4.079 5.111 6.03 9.661 12.632 15.496 17.942-4.826-22.907-27.776-27.686-45.678-37.52-7.601 0.893-15.619 1.971-22.021-0.813-4.483-1.952-8.24-6.973-12.236-9.791-14.72-10.375-32.25-16.232-52.2-20.391-8.42-4.318-22.03-5.347-34.257-7.338-3.506-0.571-7.146-2.144-10.604-2.45-9.024-0.79-17.696 1.875-26.916 2.45-3.704 4.543-10.939 3.796-16.312 6.525-2.482 1.258-4.062 3.737-6.524 4.892-4.84 2.267-14.541 5.366-17.129 3.262-0.993 4.251-6.449 2.639-9.788 3.263-19.282 3.604-47.147 8.021-68.515 4.079-17.773-3.279-31.696-12.728-44.862-18.758-2.851-1.308-6.738-1.991-9.788-3.262-5.063-2.114-7.879-3.528-13.052-4.896-1.083-0.286-1.407-1.5-2.446-1.63-1.575-0.202-3.845 0.973-5.71 0.813-2.152-0.183-4.178-1.586-5.708-1.63-3.575-0.1-8.49 2.439-13.052 0 0.586-9.462 14.294-1.513 16.314-6.525-13.823-6.007-26.807 7.328-41.599 5.708-16.493-1.805-30.891-5.729-41.599-12.233-6.736 0.365-19.67-3.326-27.731-1.633-5.785-4.759-11.785-0.103-19.576-0.816-3.281-0.299-5.333-2.592-8.156-3.263-9.079-2.15-13.75 1.388-19.575 1.633-6.468 0.272-11.84-4.009-17.945-4.896-2.814-0.408-5.376 0.859-8.156 0.816-4.597-0.07-10.156-2.738-14.681-1.63-2.069 0.505-2.076 3.412-4.894 2.446-0.138-0.953-1.291-0.886-2.448-0.816-8.213-8.909-17.837-16.417-31.804-19.576 0.881 6.136 8.289 7.351 10.604 13.05 1.069 2.632 1.776 6.793 0.815 10.604-13.018-0.85-13.339-14.395-23.654-17.946 0.473 5.121-1.552 9.482-0.816 13.866 1.158 6.903 7.416 9.552 8.973 15.496-10.477 10.545-28.213 17.899-24.471 39.97-1.679 2.419-4.192 8.284-3.262 10.604 2.036-0.684 1.717-3.724 4.895-3.263 2.295 2.931-3.435 8.251-0.816 11.417 1.661-3.232 3.208-6.578 7.341-7.341-0.06-4.052 3.493-7.235 4.894-10.604 1.007-2.419-0.412-6.787 3.262-7.338 1.45 7.089-0.763 11.921-1.631 17.129-1.753 10.504-2.682 23-4.894 30.992-0.697 2.519-1.993 5.4-2.448 8.158-2.96 17.982-0.889 36.003-3.262 53.833-0.412 3.093-2.969 5.476-1.631 8.975 0.636 0.179 0.947 0.684 0.815 1.629 8.686 3.279 14.517 9.409 21.208 14.683 4.474 0.123 8.789 0.086 12.235-0.816 1.893-1.371-0.783-7.308 3.262-6.525 0.237 4.112-1.268 9.97 3.263 9.788 3.727-0.08 3.41-4.202 4.079-7.341 2.808-1.812 5.567-3.674 8.156-5.708 1.193-8.261-2.136-12.001-2.448-18.759 3.085-1.181 1.565 2.24 4.079 1.63v-6.525c2.864-0.478 2.683 3.853 4.894 1.629 0.04-3.843-1.432-6.18-1.631-9.788 1.072-0.83 3.007-0.8 4.078-1.629 1.029-12.293 7.98-18.666 14.683-25.287-0.094-5.533 4.386-9.416 5.708-14.68 1.253-4.985 0.383-10.803 1.633-17.128 5.572-6.877 7.78-1.059 14.681 1.629 2.579 1.005 5.569 0.816 7.341 1.633 1.343 0.617 2.37 3.279 4.078 4.076 2.074 0.969 4.304 0.013 5.71 0.816 3.511 2.015 6.746 5.818 9.788 8.158 4.024 3.097 8.284 4.886 9.787 8.155h5.71c3.385 2.111 6.508 4.769 8.973 6.528 1.362 0.969 3.122 0.803 4.077 1.629 2.793 2.416 4.741 6.807 8.158 9.788 3.581 3.126 7.479 4.537 9.788 8.158 9.373 14.696-1.203 39.359 13.05 50.57 1.543 0.903 3.853 1.039 5.71 1.63 3.461 2.084 3.838 6.316 7.339 10.604 3.105 3.8 12.137 9.429 13.052 13.867 0.579 2.817-1.503 6.322-1.631 9.787-0.347 9.297 3.467 19.877 7.34 27.732 3.835 7.776 10.403 15.154 11.42 23.654 0.634 5.313-1.978 11.414-1.631 17.129 0.184 3.043 2.048 6.999 2.446 10.604 1.039 9.383 4.27 10.289 6.524 16.312 2.762 7.375 0.82 20.096 1.631 29.365 0.204 2.334 1.092 3.884 0.816 5.709-0.38 2.509-3.048 4.434-4.079 7.342-2.647 7.48-1.562 17.889-4.894 22.837-1.985 2.95-6.957 3.435-8.971 6.524-1.832 2.809-1.056 6.722-2.448 9.788-3.185 7.013-10.527 12.768-10.604 21.208 9.851 5.698 27.914 1.55 39.968 3.262 0.166 2.553-0.551 5.987 0.815 7.342 15.98 2.21 32.55-1.58 47.308-3.263 2.244-4.633 2.383-10.999 4.894-16.312 1.351-2.86 3.951-3.389 4.079-6.528 0.188-4.597-4.314-5.821-4.079-11.417 3.409-0.69 3.854 1.587 6.525 1.63 0.886-2.088-2.478-3.887 0-4.892 2.599 2.024 3.528 5.715 7.341 6.524 1.991-8.247-8.854-9.979-9.787-17.945 4.238 0.847 6.631 7.249 10.604 5.709-2.95-7.65-7.774-13.432-10.604-21.205 4.407-1.148 6.415 7.893 8.158 4.079-0.073-3.541-3.488-4.357-4.895-7.341-1.142-2.42-0.614-4.873-1.632-7.342-1.377-3.342-4.566-5.94-5.71-9.787-1.246-4.202-1.887-9.974-2.446-14.684-2.785-23.404 1.291-50.686 6.525-70.145 8.174-7.594 7.066-24.474 13.866-33.441 26.956-5.738 48.051 8.089 71.777 8.972 29.024 1.078 40.976-10.976 60.357-21.208 6.728 5.781 6.104 18.911 13.051 24.47-0.674 2.307 1.151 2.114 0.816 4.079 8.768 5.914 17.586 11.775 27.732 16.312 0.83 1.072 0.8 3.007 1.629 4.079 3.027 0.577 3.502-1.395 6.525-0.816 6.894 4.576 12.024 13.083 9.787 24.47-1.201 6.127-8.755 15.009-13.862 19.575-6.306 5.632-15.489 10.302-22.841 15.499-8.729 6.17-16.545 12.034-21.205 17.126 1.271 5.304-1.357 11.161-0.816 17.129 0.465 5.154 4.216 11.025 4.893 17.129 0.67 6.033-1.068 12.542 0 17.944 0.438 2.204 3.312 5.55 4.896 9.788 1.772 4.756 1.626 11.357 3.263 15.499 5.645 14.295 23.275 3.787 30.995-4.896 5.038-5.669 6.674-12.545 8.154-20.392-2.751-5.947-8.892-8.506-9.788-16.312h-4.078c-0.624-6.715-9.412-5.271-9.787-12.233 3.819-1.58 4.832-4.66 8.157-0.816 1.855-0.591-0.75-5.646 2.446-4.896 5.413 3.561 4.652 13.292 9.787 17.129 3.837-9.267-0.036-20.355 2.449-29.362 1.865-6.761 11.739-13.558 18.759-14.684 3.973-7.991 11.486-12.438 21.208-14.683 5.001-8.048 9.638-16.462 17.945-21.204-0.199-7.331-1.938-9.95-5.712-15.499-2.019-2.968-4.992-6.101-6.525-8.972-2.29-4.291-5.366-9.996-2.446-15.499 5.503-0.335 5.778 4.557 8.158 7.342 6.903 4.464 13.119 9.044 17.941 14.683 2.019 2.356 4.103 4.577 4.896 6.525 1.012 2.495 0.176 6.813 1.629 10.604 0.545 1.414 1.988 2.639 2.449 4.079 5.201 16.302 0.315 33.756-3.262 49.753-0.993 4.428-0.588 8.961-1.634 12.233-1.291 4.036-5.062 6.957-6.524 10.604-3.303 8.23-2.559 16.7-5.709 23.653-4.068 2.46-6.03 7.023-9.787 9.791-0.109 6.688-2.496 11.099-3.266 17.125-0.349 2.254 3.043 0.768 3.266 2.45-3.75-0.541-1.633 3.156-2.449 4.892-1.494 3.183-6.227 6.398-5.709 11.42 2.921 1.729 6.532 1.763 9.788 1.63 4.875-0.195 17.019-2.482 21.208-4.075 6.057-2.307 9.564-9.077 15.495-8.975 0.358-6.574 1.6-13.332 0-19.575-2.091-1.984-6.319-1.838-6.524-5.708 0.348-2.914 2.047-4.478 4.078-5.712 2.154-1.108 1.305-5.221 4.896-4.892 2.688-0.16-0.404 3.786 4.076 3.262 1.835-1.633-1.401-5.091 1.633-6.524 2.658-1.4 3.926 3.906 4.079 0 1.354-6.389-4.541-10.963-0.816-14.683 1.769 1.221 1.898 4.082 4.895 4.078-1.828-11.748-11.795-26.235-3.266-38.336 2.078-0.887 3.166 3.819 3.266 0-1.771-6.502-4.251-12.147-3.266-18.759 0.551-3.681 3.714-7.862 4.896-12.236 1.892-7.007 2.091-14.62 3.263-20.392 1.656-8.161 6.419-16.863 5.709-23.653-0.472-4.53-6.164-6.91-4.076-12.234 4.64-0.561 4.584 7.003 8.154 4.893-0.779-8.523 3.595-11.367 4.896-17.126 2.243-9.953 0.358-18.556 7.342-22.023-2.662 21.536-5.702 42.694-11.421 61.174 4.677-4.176 5.51-10.949 8.154-17.129 2.384-5.56 6.651-11.388 8.158-17.129 0.578-2.2-0.349-5.085 0-7.342 0.518-3.345 2.304-7.561 3.263-11.417 1.009-4.056 2.131-8.354 3.263-12.236 5.188-17.799 7.172-36.797 14.683-51.387-0.577 7.501-1.082 16.422-1.633 24.47-0.398 5.838-2.629 12.267 0 16.312 0.435-3.644 2.456-5.702 1.633-10.604 6.325-8.848 7.421-24.855 5.708-38.333-0.245-1.952-1.427-3.896-1.629-5.712-0.389-3.452 0.713-7.103 0-10.601-1.77-8.652-13.638-15.814-6.525-22.841 0.84 2.95 4.09 4.56 5.67 7.4zm-393.15 231.65c-0.629 3.949-3.113 7.66-3.263 11.417-0.275 6.953 4.04 12.891-1.631 18.762-2.957-6.339-1.556-15.612-3.262-24.471-1.263-6.558-5.315-12.296-5.71-18.758-0.439-7.219-0.192-15.695 0-23.654 0.168-6.873 2.338-13.531 1.632-20.391-0.236-2.301-1.915-4.265-2.446-6.525-1.222-5.2-1.069-12.502-1.631-18.762-1.079-11.978-1.831-21.911-0.816-35.074-0.229-1.314 0.772-1.403 0.816-2.445h2.446c5.48 8.273 11.424 21.304 9.79 35.073-0.91 7.65-4.796 14.783-7.341 20.392 3.146 9.107 3.425 18.626 5.708 28.546 2.82 12.27 7.95 21.77 5.7 35.88zm145.19-303.43c1.071 0.289 1.28 1.437 2.446 1.633-0.34 2.031-3.17 0.047-2.45-1.633zm181.89 186.79c-2.751-0.624 1.056-2.257-1.63-4.892-5.433-7.219-7.975-17.381-8.158-27.733 3.917-1.795 3.492-7.929 6.525-10.604 4.48-16.169 8.304-32.638 12.236-47.307-0.232-1.318 0.771-1.404 0.816-2.446h2.446c3.847 13.246-2.153 32.22 0.813 43.229-5.67 16.12-5.21 34.9-13.06 49.75zm8.16-0.82c0.353 4.703-0.086 8.616-4.895 8.158 5.738-14.108 4.652-35.041 11.42-48.124-0.472-1.706-2.021-2.327-1.633-4.892 2.99 0.544 2.19 4.879 4.079 6.525-3.67 10.62-0.82 27.46-8.97 38.33zm30.18-34.26c-1.689-0.484-5.357 1.009-5.709-0.813 1.59-3.034 6.737-2.506 8.971-4.896 1.61 1.41-3.84 2.64-3.26 5.71zm19.57-44.04c-3.574-3.096-2.406-12.193 0-15.499 2.14 4.06-1.16 9.7 0 15.5z" fill="yellow"/>
	<path d="m191.88 26.1c-1.86-0.229-3.066 0.196-3.262 1.633 1.86 0.225 3.06-0.196 3.26-1.633z"/>
	<path d="m425.16 68.515c-1.166-0.196-1.375-1.344-2.446-1.633-0.72 1.68 2.11 3.664 2.45 1.633z"/>
<metadata><rdf:RDF><cc:Work><dc:format>image/svg+xml</dc:format><dc:type rdf:resource="http://purl.org/dc/dcmitype/StillImage"/><cc:license rdf:resource="http://creativecommons.org/licenses/publicdomain/"/><dc:publisher><cc:Agent rdf:about="http://openclipart.org/"><dc:title>Openclipart</dc:title></cc:Agent></dc:publisher><dc:title>horse silhouette</dc:title><dc:date>2007-10-25T03:43:58</dc:date><dc:description>Line and Form by Walter Crane, 1914</dc:description><dc:source>http://openclipart.org/detail/7305/horse-silhouette-by-johnny_automatic-7305</dc:source><dc:creator><cc:Agent><dc:title>johnny_automatic</dc:title></cc:Agent></dc:creator><dc:subject><rdf:Bag><rdf:li>animal</rdf:li><rdf:li>clip art</rdf:li><rdf:li>clipart</rdf:li><rdf:li>externalsource</rdf:li><rdf:li>horse</rdf:li><rdf:li>image</rdf:li><rdf:li>mammal</rdf:li><rdf:li>media</rdf:li><rdf:li>png</rdf:li><rdf:li>public domain</rdf:li><rdf:li>silhouette</rdf:li><rdf:li>svg</rdf:li></rdf:Bag></dc:subject></cc:Work><cc:License rdf:about="http://creativecommons.org/licenses/publicdomain/"><cc:permits rdf:resource="http://creativecommons.org/ns#Reproduction"/><cc:permits rdf:resource="http://creativecommons.org/ns#Distribution"/><cc:permits rdf:resource="http://creativecommons.org/ns#DerivativeWorks"/></cc:License></rdf:RDF></metadata></svg>
