<svg xmlns:rdf="http://www.w3.org/1999/02/22-rdf-syntax-ns#" xmlns="http://www.w3.org/2000/svg" xmlns:cc="http://web.resource.org/cc/" xmlns:dc="http://purl.org/dc/elements/1.1/" xmlns:svg="http://www.w3.org/2000/svg" id="svg2" viewBox="0 0 724.53 446.35" version="1.0">
  <g id="layer1" transform="translate(-19.098 -391.71)">
    <path id="path2170" fill="yellow" d="m267.24 832.51c4.24-18.14 16.1-63.35 19.53-74.43 2.48-8.01 5.14-12.83 7.09-12.83 4.77 0 10.54 20.33 12.99 45.81 1.2 12.44 2.84 27.43 3.64 33.31l-3.12 10.69h21.54l4.91-39.56c7.09-57.02 16.9-113.52 20.2-116.39 2.12-1.84 17.84 7.27 67.02 8.93l67.25-6.95 9.86 22.75c11.92 11.85 22.24 10.68 22.72 15.58 0.74 7.54 7.7 10.11 12.32 4.54 1.62-1.95 11.52-6.36 16.44-6.36 6.96 0 3.34 3.95 5.05 8.45 3.24 8.51 10.06 10.23 14.72 1.59 2.33-4.32 11.43-6.59 17-11.96 7.85-7.58 12.44-17.55 13.88-15.22 0.65 1.06-12.49 46-18.93 75.61-3.7 16.97-6.03 37.72-11.45 42.65-7.35 6.69-6.86 13-6.38 13.03 11.84 0.78 27.22 1.94 31.22-0.43 1.61-0.96 12.47-30.1 25.14-63.62 12.66-33.52 24.2-50.6 25.8-52.32 1.81-1.94 3.6-2.34 4.76-1.07 1.01 1.13 4.07 16.29 6.62 48.04 2.7 33.63 8.94 52.1 5.45 61.08-4.42 11.38-3.06 10.37 2.67 10.37 4.58 0 15.92-0.66 16.56-1.69 0.64-1.04 4.59-37.04 8.77-80.01l9.76-67.31-9.19-20.78c-6.2-8.8-13.59-21.63-14.25-36.1-0.41-9.03 7.75-23.25 10.21-43.48 2.47-20.23 4.48-37.8 4.48-39.03s0.93-2.24 2.06-2.24c2.56 0 4.85 8.41 15.39 56.67 7.58 34.73 8.27 40.38 7.04 57.74-1.32 18.75-1.17 19.63 5.85 34.21 3.97 8.24 1.88 29.97 2.83 31.5 2.74 4.39 12.97-14.22 16.16-25.6 4.62-16.49 3.57-28.44-3.92-44.72-5.57-12.11-9.36-29.02-21.97-97.97-8.38-45.84-10.13-70.02-11.36-72.4-3.46-6.75-21.38-38.47-46.75-34.67-6.48 0.97-4.35-17.42-184.52-18.85-110.55-0.87-218.81 13.42-240.57 13.1l-26.6-1.66-12.33-18.17c0.34-10.58-0.26-20.55-1.34-22.15-3.2-4.71-9.68-1.09-22.53 12.59-6.59 7.02-13.75 12.77-15.9 12.77-2.69 0-5.39-3.5-8.66-11.23-5.89-13.93-13.88-23.98-17.86-22.46-1.65 0.64-4.86 6.65-7.14 13.37-2.84 8.36-6.19 13.63-10.59 16.7-3.53 2.47-5.5 26.85-20.262 31.56-13.333 4.25-35.664 17.89-46.504 25.16-10.84 7.26-20.726 15.1-21.969 17.43-3.175 5.93 1.425 15.81 13.208 28.38l9.532 10.16 15.964-1.35c14.073-1.19 17.095-0.76 25.507 3.6 8.078 4.18 13.647 5.08 36.274 5.87 14.7 0.5 28.44 1.82 30.53 2.92 5.19 2.72 27.59 31.2 36.34 46.2 3.93 6.74 10.75 20.91 15.15 31.49 10.08 24.24 22.31 44.91 32.2 54.42l7.67 7.37 0.19 23.64c0.11 13 1.31 47.21 2.68 76.03l1.95 41.28-4.63 11.11 14.17 0.65c8.34 0.61 9.13 0.21 10.43-5.34z"/>
  </g>
  <metadata>
    <rdf:RDF>
      <cc:Work>
        <dc:format>image/svg+xml</dc:format>
        <dc:type rdf:resource="http://purl.org/dc/dcmitype/StillImage"/>
        <cc:license rdf:resource="http://creativecommons.org/licenses/publicdomain/"/>
        <dc:publisher>
          <cc:Agent rdf:about="http://openclipart.org/">
            <dc:title>Openclipart</dc:title>
          </cc:Agent>
        </dc:publisher>
        <dc:title>Cow Silhouette</dc:title>
        <dc:date>2007-09-02T18:03:33</dc:date>
        <dc:description>A silhouette of a Cow</dc:description>
        <dc:source>http://openclipart.org/detail/5139/cow-silhouette-by-boort</dc:source>
        <dc:creator>
          <cc:Agent>
            <dc:title>Boort</dc:title>
          </cc:Agent>
        </dc:creator>
        <dc:subject>
          <rdf:Bag>
            <rdf:li>animal</rdf:li>
            <rdf:li>clip art</rdf:li>
            <rdf:li>clipart</rdf:li>
            <rdf:li>cow</rdf:li>
            <rdf:li>farm</rdf:li>
            <rdf:li>image</rdf:li>
            <rdf:li>media</rdf:li>
            <rdf:li>outline</rdf:li>
            <rdf:li>public domain</rdf:li>
            <rdf:li>silhouette</rdf:li>
            <rdf:li>svg</rdf:li>
          </rdf:Bag>
        </dc:subject>
      </cc:Work>
      <cc:License rdf:about="http://creativecommons.org/licenses/publicdomain/">
        <cc:permits rdf:resource="http://creativecommons.org/ns#Reproduction"/>
        <cc:permits rdf:resource="http://creativecommons.org/ns#Distribution"/>
        <cc:permits rdf:resource="http://creativecommons.org/ns#DerivativeWorks"/>
      </cc:License>
    </rdf:RDF>
  </metadata>
</svg>
